<svg width="32" height="32" viewBox="0 0 32 32" fill="none" xmlns="http://www.w3.org/2000/svg">
<path d="M21.6533 10.3467L19.248 17.5613C19.1171 17.9541 18.8965 18.311 18.6038 18.6038C18.311 18.8965 17.9541 19.1171 17.5613 19.248L10.3467 21.6533L12.752 14.4387C12.8829 14.0459 13.1035 13.689 13.3962 13.3962C13.689 13.1035 14.0459 12.8829 14.4387 12.752L21.6533 10.3467Z" stroke="#5C4A3D" stroke-width="3.33333" stroke-linecap="round" stroke-linejoin="round"/>
<path d="M15.9998 29.3334C23.3636 29.3334 29.3332 23.3638 29.3332 16C29.3332 8.63622 23.3636 2.66669 15.9998 2.66669C8.63604 2.66669 2.6665 8.63622 2.6665 16C2.6665 23.3638 8.63604 29.3334 15.9998 29.3334Z" stroke="#5C4A3D" stroke-width="3.33333" stroke-linecap="round" stroke-linejoin="round"/>
</svg>
