<svg width="20" height="20" viewBox="0 0 20 20" fill="none" xmlns="http://www.w3.org/2000/svg">
<path d="M7.5498 9.91666L14.2748 3.19999C14.494 2.9737 14.7561 2.79328 15.0457 2.66925C15.3353 2.54522 15.6467 2.48006 15.9618 2.47755C16.2768 2.47505 16.5892 2.53526 16.8808 2.65467C17.1724 2.77408 17.4372 2.95032 17.66 3.1731C17.8828 3.39588 18.059 3.66077 18.1785 3.95233C18.2979 4.24389 18.3581 4.55629 18.3556 4.87134C18.3531 5.1864 18.2879 5.49781 18.1639 5.78743C18.0399 6.07706 17.8594 6.33911 17.6331 6.55832L10.9165 13.2917" stroke="#8B7355" stroke-width="1.66667" stroke-linecap="round" stroke-linejoin="round"/>
<path d="M5.89168 12.45C4.50835 12.45 3.39169 13.575 3.39169 14.9667C3.39169 16.075 1.30835 16.2333 1.72502 16.65C2.62502 17.5667 3.80002 18.3333 5.05835 18.3333C6.89169 18.3333 8.39168 16.8333 8.39168 14.9667C8.39278 14.6373 8.32899 14.3109 8.20394 14.0061C8.0789 13.7014 7.89505 13.4243 7.66291 13.1906C7.43076 12.9569 7.15486 12.7712 6.85095 12.6441C6.54704 12.5171 6.22108 12.4511 5.89168 12.45Z" stroke="#8B7355" stroke-width="1.66667" stroke-linecap="round" stroke-linejoin="round"/>
</svg>
