<svg width="28" height="28" viewBox="0 0 28 28" fill="none" xmlns="http://www.w3.org/2000/svg">
<path d="M23.3333 9.33331H4.66667C4.02233 9.33331 3.5 9.85565 3.5 10.5V12.8333C3.5 13.4776 4.02233 14 4.66667 14H23.3333C23.9777 14 24.5 13.4776 24.5 12.8333V10.5C24.5 9.85565 23.9777 9.33331 23.3333 9.33331Z" stroke="#D4183D" stroke-width="2.33333" stroke-linecap="round" stroke-linejoin="round"/>
<path d="M14 9.33331V24.5" stroke="#D4183D" stroke-width="2.33333" stroke-linecap="round" stroke-linejoin="round"/>
<path d="M22.1668 14V22.1667C22.1668 22.7855 21.921 23.379 21.4834 23.8166C21.0458 24.2542 20.4523 24.5 19.8335 24.5H8.16683C7.54799 24.5 6.9545 24.2542 6.51691 23.8166C6.07933 23.379 5.8335 22.7855 5.8335 22.1667V14" stroke="#D4183D" stroke-width="2.33333" stroke-linecap="round" stroke-linejoin="round"/>
<path d="M8.75016 9.33335C7.97661 9.33335 7.23475 9.02606 6.68777 8.47908C6.14079 7.9321 5.8335 7.19024 5.8335 6.41669C5.8335 5.64314 6.14079 4.90127 6.68777 4.35429C7.23475 3.80731 7.97661 3.50002 8.75016 3.50002C9.87563 3.48041 10.9785 4.02649 11.915 5.06704C12.8515 6.10759 13.5782 7.59433 14.0002 9.33335C14.4222 7.59433 15.1488 6.10759 16.0853 5.06704C17.0218 4.02649 18.1247 3.48041 19.2502 3.50002C20.0237 3.50002 20.7656 3.80731 21.3126 4.35429C21.8595 4.90127 22.1668 5.64314 22.1668 6.41669C22.1668 7.19024 21.8595 7.9321 21.3126 8.47908C20.7656 9.02606 20.0237 9.33335 19.2502 9.33335" stroke="#D4183D" stroke-width="2.33333" stroke-linecap="round" stroke-linejoin="round"/>
</svg>
