<svg width="18" height="18" viewBox="0 0 18 18" fill="none" xmlns="http://www.w3.org/2000/svg">
<path d="M4.5 8.25H7.5" stroke="#5C4A3D" stroke-width="1.5" stroke-linecap="round" stroke-linejoin="round"/>
<path d="M6 6.75V9.75" stroke="#5C4A3D" stroke-width="1.5" stroke-linecap="round" stroke-linejoin="round"/>
<path d="M11.25 9H11.2575" stroke="#5C4A3D" stroke-width="1.5" stroke-linecap="round" stroke-linejoin="round"/>
<path d="M13.5 7.5H13.5075" stroke="#5C4A3D" stroke-width="1.5" stroke-linecap="round" stroke-linejoin="round"/>
<path d="M12.99 3.75H5.01C4.26771 3.75017 3.55184 4.02553 3.00078 4.52285C2.44971 5.02016 2.10258 5.70412 2.0265 6.4425C2.022 6.4815 2.019 6.51825 2.01375 6.5565C1.953 7.062 1.5 10.842 1.5 12C1.5 12.5967 1.73705 13.169 2.15901 13.591C2.58097 14.0129 3.15326 14.25 3.75 14.25C4.5 14.25 4.875 13.875 5.25 13.5L6.3105 12.4395C6.59174 12.1582 6.97321 12.0001 7.371 12H10.629C11.0268 12.0001 11.4083 12.1582 11.6895 12.4395L12.75 13.5C13.125 13.875 13.5 14.25 14.25 14.25C14.8467 14.25 15.419 14.0129 15.841 13.591C16.2629 13.169 16.5 12.5967 16.5 12C16.5 10.8413 16.047 7.062 15.9863 6.5565C15.981 6.519 15.978 6.4815 15.9735 6.44325C15.8976 5.70473 15.5505 5.0206 14.9995 4.52313C14.4484 4.02566 13.7324 3.75019 12.99 3.75Z" stroke="#5C4A3D" stroke-width="1.5" stroke-linecap="round" stroke-linejoin="round"/>
</svg>
